<svg xmlns="http://www.w3.org/2000/svg" width="1200" height="675" viewBox="0 0 1200 675" role="img" aria-labelledby="t d"><title id="t">Mosaic ERP overview</title><desc id="d">Retail blueprint dashboard and conversational controls</desc><defs><linearGradient id="g" x2="1" y2="1"><stop stop-color="#09251d"/><stop offset="1" stop-color="#14b88a"/></linearGradient></defs><rect width="1200" height="675" rx="32" fill="#f6f7f2"/><rect x="45" y="48" width="1110" height="90" rx="18" fill="url(#g)"/><text x="85" y="105" font-family="system-ui" font-size="36" font-weight="700" fill="white">Mosaic ERP</text><text x="85" y="220" font-family="system-ui" font-size="46" font-weight="750" fill="#10221c">Your business. Your ERP.</text><g fill="white" stroke="#dfe5df" stroke-width="2"><rect x="70" y="280" width="250" height="150" rx="18"/><rect x="345" y="280" width="250" height="150" rx="18"/><rect x="620" y="280" width="250" height="150" rx="18"/><rect x="895" y="280" width="235" height="280" rx="18"/></g><g font-family="system-ui" fill="#10221c"><text x="95" y="325" font-size="19">Sales blueprint</text><text x="370" y="325" font-size="19">Inventory controls</text><text x="645" y="325" font-size="19">Tax configuration</text><text x="920" y="325" font-size="19">Conversation</text></g><g fill="#14b88a"><rect x="95" y="355" width="180" height="18" rx="9"/><rect x="370" y="355" width="150" height="18" rx="9"/><rect x="645" y="355" width="195" height="18" rx="9"/></g><rect x="70" y="455" width="800" height="105" rx="18" fill="#09251d"/><text x="100" y="505" font-family="system-ui" font-size="23" fill="white">Plain-language interview → tailored modules, KPIs, roles and workflows</text><text x="920" y="375" font-family="system-ui" font-size="17" fill="#64716c">How do you sell?</text><rect x="920" y="400" width="175" height="46" rx="12" fill="#14b88a"/><text x="945" y="430" font-family="system-ui" font-size="17" fill="#062118">Multi-store retail</text></svg>
